<?xml version="1.0" encoding="UTF-8"?>
<!DOCTYPE svg PUBLIC "-//W3C//DTD SVG 1.1//EN" "http://www.w3.org/Graphics/SVG/1.1/DTD/svg11.dtd">
<!-- Creator: CorelDRAW (Versão de avaliação) -->
<svg xmlns="http://www.w3.org/2000/svg" xml:space="preserve" width="210mm" height="297mm" version="1.1" style="shape-rendering:geometricPrecision; text-rendering:geometricPrecision; image-rendering:optimizeQuality; fill-rule:evenodd; clip-rule:evenodd"
viewBox="0 0 21000 29700"
 xmlns:xlink="http://www.w3.org/1999/xlink"
 xmlns:xodm="http://www.corel.com/coreldraw/odm/2003">
 <defs>
  <style type="text/css">
   <![CDATA[
    .fil0 {fill:#439FC2;fill-rule:nonzero}
    .fil2 {fill:white;fill-rule:nonzero}
    .fil9 {fill:url(#id13)}
    .fil13 {fill:url(#id14)}
    .fil16 {fill:url(#id15)}
    .fil29 {fill:url(#id16)}
    .fil24 {fill:url(#id17)}
    .fil20 {fill:url(#id18)}
    .fil32 {fill:url(#id19)}
    .fil7 {fill:url(#id20)}
    .fil12 {fill:url(#id21)}
    .fil10 {fill:url(#id22)}
    .fil33 {fill:url(#id23)}
    .fil6 {fill:url(#id24)}
    .fil37 {fill:url(#id25)}
    .fil23 {fill:url(#id26)}
    .fil25 {fill:url(#id27)}
    .fil41 {fill:url(#id28)}
    .fil34 {fill:url(#id29)}
    .fil22 {fill:url(#id30)}
    .fil4 {fill:url(#id31)}
    .fil38 {fill:url(#id32)}
    .fil11 {fill:url(#id33)}
    .fil18 {fill:url(#id34)}
    .fil30 {fill:url(#id35)}
    .fil43 {fill:url(#id36)}
    .fil5 {fill:url(#id37)}
    .fil35 {fill:url(#id38)}
    .fil17 {fill:url(#id39)}
    .fil19 {fill:url(#id40)}
    .fil39 {fill:url(#id41)}
    .fil31 {fill:url(#id42)}
    .fil42 {fill:url(#id43)}
    .fil28 {fill:url(#id44)}
    .fil26 {fill:url(#id45)}
    .fil27 {fill:url(#id46)}
    .fil40 {fill:url(#id47)}
    .fil15 {fill:url(#id48)}
    .fil8 {fill:url(#id49)}
    .fil14 {fill:url(#id50)}
    .fil21 {fill:url(#id51)}
    .fil36 {fill:url(#id52)}
    .fil3 {fill:url(#id53)}
    .fil1 {fill:url(#id54)}
   ]]>
  </style>
   <clipPath id="id0">
    <path d="M8195.52 10963.45c0,-9.6 -0.99,-18.56 -1.99,-26.89 93.45,-69.77 186.9,-138.27 277.37,-205.49 6.95,-5.12 14.91,-10.24 21.87,-16 96.43,-58.9 133.21,-218.94 270.4,-218.94 8.95,0 17.9,0.64 26.84,1.92 6.96,-4.48 13.92,-9.6 20.88,-15.36 137.19,-77.46 242.57,-147.88 358.88,-257.98 8.95,-5.77 17.9,-12.17 25.85,-17.93 12.93,-9.6 25.85,-18.56 38.77,-27.53 5.97,-4.48 11.93,-8.96 17.9,-13.44 42.75,-132.51 132.22,-202.93 241.57,-202.93 12.93,0 25.85,1.28 39.77,3.2 7.95,-4.48 15.9,-10.24 22.86,-15.36 36.79,-25.61 71.58,-49.93 103.39,-72.34 7.96,-5.76 15.91,-10.88 23.86,-16.64 28.83,-34.57 71.58,-46.1 114.33,-54.42 15.91,1.92 31.81,3.2 46.72,3.2 50.7,0 90.47,-17.92 90.47,-110.74 0,87.7 -67.6,94.1 -137.19,107.54 -1.99,0 -3.98,-0.64 -5.97,-0.64 -17.89,-1.92 -35.78,-4.48 -52.69,-4.48 -30.81,0 -58.65,7.68 -74.56,35.21 -11.93,7.04 -22.86,13.44 -33.8,20.48 -22.86,13.45 -45.73,26.89 -68.59,40.33 -10.94,7.05 -22.87,13.45 -33.8,20.49 -122.28,28.17 -263.45,63.38 -308.18,190.77 -10.94,7.68 -22.87,14.72 -33.81,22.4 -11.93,7.04 -22.86,14.09 -34.79,21.77 -11.93,7.68 -23.86,15.36 -35.79,25.6 -97.42,120.35 -274.38,155.56 -379.76,249.03 -10.94,4.48 -20.88,9.6 -30.82,14.72 -89.47,47.37 -157.07,112.03 -261.46,186.29 -7.95,5.76 -15.9,11.52 -23.86,16.64 -101.4,71.06 -201.81,142.76 -300.23,213.81 -10.93,-2.56 -22.86,-5.12 -35.78,-6.4 103.39,-74.9 208.76,-151.07 316.13,-227.25 7.95,-5.77 14.91,-10.89 22.87,-16.65 65.61,-97.94 206.78,-97.94 279.35,-195.25 7.95,-5.12 15.91,-10.88 24.85,-16.64 114.33,-133.15 291.29,-97.95 373.8,-250.94 11.93,-9.61 23.86,-17.29 34.79,-24.33 11.93,-7.68 23.86,-15.36 34.8,-23.05 11.93,-7.68 23.86,-15.36 35.79,-23.04 58.65,-94.1 165.02,-129.31 283.33,-183.09 11.93,-7.68 23.86,-14.72 35.79,-22.4 23.85,-15.37 46.72,-30.09 70.58,-44.81 11.93,-7.05 23.86,-14.73 36.78,-21.77 161.05,-33.29 267.42,-33.29 322.1,-197.81 11.93,-7.68 23.86,-14.72 36.79,-21.76 46.72,-28.81 94.44,-56.98 142.16,-84.5 11.93,-7.05 23.86,-14.09 35.79,-21.13 83.5,-131.87 188.88,-167.08 325.08,-185.01 11.93,-7.04 23.86,-13.44 35.79,-20.48 328.06,-181.17 662.09,-352.73 998.11,-509.57 0,0 -377.77,225.98 -953.38,592.15 -8.94,5.76 -17.89,10.88 -26.84,16.64 -28.83,-4.48 -55.67,-7.04 -80.52,-7.04 -111.35,0 -187.89,51.21 -225.67,203.57 -5.97,3.84 -12.93,8.32 -18.89,12.17 -52.69,33.92 -105.38,68.49 -160.06,103.7 -5.96,3.84 -11.93,8.32 -17.89,12.16 -74.56,108.83 -215.73,144.04 -307.19,201.65 -6.96,4.49 -12.92,8.33 -19.88,12.81 -39.77,26.24 -79.53,52.49 -119.3,79.38 -5.96,4.48 -12.92,8.32 -18.89,12.16 -19.88,-1.92 -38.77,-3.2 -56.66,-3.2 -133.22,0 -194.85,70.42 -245.56,206.77 -5.96,3.84 -12.92,8.32 -18.88,12.8 -25.85,17.29 -51.7,35.21 -77.55,52.5 -5.96,4.48 -11.93,8.32 -18.88,12.8 -109.36,120.35 -250.53,120.35 -324.09,222.78 -6.96,5.12 -14.92,10.88 -22.87,16 -150.11,23.05 -220.7,58.26 -302.22,211.89 -7.95,5.76 -15.9,11.53 -23.86,16.65 -97.42,69.77 -195.84,140.19 -294.26,211.25l0 0z"/>
   </clipPath>
   <clipPath id="id1">
    <path d="M5960.38 13061.5c-85.42,0 -164.48,-28.22 -228.1,-75.77 157.44,-41.55 368.73,-137.09 608.41,-275.29 -15.68,196.42 -179.93,351.06 -380.31,351.06zm-367.59 -482.81c29.08,-106.21 103.14,-193.97 200.15,-241.52 -78.83,85.99 -146.31,167.08 -200.15,241.52l0 0z"/>
   </clipPath>
   <clipPath id="id2">
    <path d="M5581.52 13008.7c-56.5,0 -96.86,-14.21 -119.46,-43.82 -52.46,-67.51 0,-206.66 130.76,-386.09 -8.88,31.98 -13.72,66.32 -13.72,101.26 0,124.95 60.54,236.27 153.36,305.56 -58.12,15.39 -108.97,23.09 -150.94,23.09zm758.72 -298.45c0.81,-10.07 1.62,-20.13 1.62,-30.2 0,-74.02 -20.99,-142.71 -57.31,-201.33 560.16,-503.34 1234.94,-1026.22 1911.33,-1515.35 -1.62,226.8 -476.22,759.75 -1146.15,1270.19 -246.99,188.9 -489.94,350.56 -709.49,476.69zm919.35 -878.77c-8.88,0 -16.15,7.11 -16.15,15.99 0,8.88 7.27,16.58 16.15,16.58 8.87,0 16.14,-7.7 16.14,-16.58 0,-8.88 -7.27,-15.99 -16.14,-15.99l0 0z"/>
   </clipPath>
   <clipPath id="id3">
    <path d="M6179.84 12368.09c-62.33,-43.82 -137.93,-69.31 -219.5,-69.31 -59.69,0 -116.72,13.86 -167.12,38.45 200.28,-217.77 474.82,-466.4 794.47,-710.1 616.73,-469.98 1206.94,-774.95 1468.23,-774.95 9.95,0 19.23,0.44 28.51,1.34 -857.46,626.49 -1536.53,1195.29 -1904.59,1514.57zm1384.68 -1311.56c-14.59,0 -26.53,11.63 -26.53,26.39 0,14.75 11.94,26.38 26.53,26.38 14.59,0 26.52,-11.63 26.52,-26.38 0,-14.76 -11.93,-26.39 -26.52,-26.39l0 0z"/>
   </clipPath>
   <clipPath id="id4">
    <path d="M7564.32 11109.3c-14.58,0 -26.42,-11.8 -26.42,-26.39 0,-14.61 11.84,-26.45 26.42,-26.45 14.62,0 26.45,11.84 26.45,26.45 0,14.59 -11.83,26.39 -26.45,26.39l0 0z"/>
   </clipPath>
   <clipPath id="id5">
    <path d="M6284.36 12479.14c-2.35,-3.81 -4.69,-7.62 -7.04,-11.43 534.31,-479.02 1254.18,-1038.52 1915.91,-1530.88 1.76,8.09 2.35,17.14 2.35,26.19 -676.41,489.5 -1351.06,1012.34 -1911.22,1516.12zm-99.23 -107.14c-1.76,-1.42 -3.52,-2.85 -5.28,-4.28 367.56,-319.03 1046.91,-887.58 1904.75,-1514.22 12.92,0.95 24.66,3.33 35.23,6.66 -829.66,599.03 -1553.63,1191.86 -1934.7,1511.84l0 0z"/>
   </clipPath>
   <clipPath id="id6">
    <path d="M5732.29 12985.64c-92.94,-69.38 -153.28,-180.57 -153.28,-305.54 0,-35.23 4.86,-69.18 13.64,-101.43 54.1,-74.26 121.38,-155.53 200.44,-241.47 50.4,-24.61 107.27,-38.62 167.38,-38.62 81.61,0 157.21,25.68 219.16,69.39 -91.08,78.93 -163.21,142.8 -214.07,188.21 -1.62,0 -3.47,0 -5.09,0 -68.43,0 -123.92,55.38 -123.92,123.92 0,68.32 55.49,123.91 123.92,123.91 68.43,0 123.91,-55.59 123.91,-123.91 0,-5.52 -0.46,-11.04 -1.15,-16.13 65.19,-61.32 132.47,-123.07 201.36,-185.03 36.3,58.35 57.34,127.31 57.34,201.16 0,10.18 -0.47,20.37 -1.39,30.34 -239.51,138.13 -450.81,233.83 -608.25,275.2zm-51.56 -117.55c-9.01,0 -16.18,7.22 -16.18,16.13 0,8.91 7.17,16.34 16.18,16.34 9.02,0 16.19,-7.43 16.19,-16.34 0,-8.91 -7.17,-16.13 -16.19,-16.13l0 0z"/>
   </clipPath>
   <clipPath id="id7">
    <path d="M5680.75 12900.47c-8.98,0 -16.21,-7.25 -16.21,-16.17 0,-8.97 7.23,-16.21 16.21,-16.21 8.91,0 16.14,7.24 16.14,16.21 0,8.92 -7.23,16.17 -16.14,16.17l0 0z"/>
   </clipPath>
   <clipPath id="id8">
    <path d="M6083.27 12663.85c-0.64,-5.25 -1.71,-10.4 -3,-15.46 62.17,-58.7 128.1,-119.06 196.92,-180.78 2.57,3.69 5.03,7.49 7.39,11.37 -68.92,61.92 -136.13,123.63 -201.31,184.87zm-115.23 -107.5c-0.86,0 -1.61,0 -2.47,-0.1 50.92,-45.48 122.96,-109.24 214.07,-188.36 1.93,1.36 3.86,2.72 5.68,4.08 -95.08,79.9 -168.72,142.78 -217.28,184.38l0 0z"/>
   </clipPath>
   <clipPath id="id9">
    <path d="M8193.6 10936.44c-2.97,-15.51 -8.91,-29 -17.82,-40.46 -12.88,-16.86 -31.69,-29 -55.96,-36.08 98.54,-71.14 199.06,-142.63 300.08,-213.77 7.92,-5.39 16.34,-11.13 24.26,-16.86 103.98,-74.18 171.82,-138.92 260.95,-186.12 9.91,-5.06 20.3,-10.12 31.2,-15.17 105.47,-93.07 282.24,-128.13 380.29,-248.84 11.39,-10.12 23.27,-17.87 35.65,-25.63 11.39,-7.42 22.78,-14.5 34.17,-21.91 11.39,-7.42 22.77,-14.5 34.16,-21.92 44.57,-127.45 185.69,-162.86 307.5,-190.84 11.39,-6.75 22.78,-13.83 34.17,-20.57 22.78,-13.49 45.56,-27.31 68.33,-40.8 11.39,-6.74 22.78,-13.15 34.17,-19.89 15.85,-27.99 43.58,-35.07 74.77,-35.07 16.84,0 34.66,2.02 52.98,4.05 1.98,0.33 3.97,0.67 5.95,0.67 -42.59,8.43 -86.16,19.89 -114.39,54.62 -7.92,5.4 -15.84,10.79 -24.26,16.52 -32.19,22.6 -66.35,46.87 -103,72.5 -7.42,5.06 -14.85,10.45 -23.27,15.17 -13.37,-2.02 -26.74,-3.03 -40.11,-3.03 -108.94,0 -198.07,70.47 -240.65,202.98 -6.44,4.72 -12.38,9.1 -18.82,13.48 -12.38,9.11 -25.25,17.88 -38.12,26.98 -8.42,6.07 -16.84,12.47 -25.75,18.54 -116.37,109.92 -222.33,180.39 -359,257.95 -6.93,5.39 -13.87,10.45 -20.8,15.17 -9.41,-1.01 -18.32,-1.69 -26.74,-1.69 -137.65,0 -174.3,159.83 -270.85,218.83 -7.43,5.4 -14.36,10.79 -21.79,16.19 -90.62,66.76 -183.71,135.21 -277.3,205l0 0z"/>
   </clipPath>
   <clipPath id="id10">
    <path d="M6277.32 12467.59c-24.66,-36.91 -56.37,-69.14 -92.19,-95.77 381.07,-319.55 1105.04,-912.39 1934.7,-1511.77 24.08,7.01 42.87,18.69 55.78,35.98 9.4,11.21 14.68,25.22 17.62,40.64 -661.73,492.4 -1381.6,1052.07 -1915.91,1530.92l0 0z"/>
   </clipPath>
   <clipPath id="id11">
    <path d="M6080.27 12648.36c-13.4,-50.71 -58.1,-88.69 -112.23,-92.01 48.56,-41.67 122.2,-104.46 217.28,-184.39 35.91,26.28 67.1,58.64 91.87,95.61 -68.82,61.67 -134.75,122.15 -196.92,180.79l0 0z"/>
   </clipPath>
   <clipPath id="id12">
    <path d="M9845.09 9810.78c-15,0 -30.8,-1.62 -46.76,-3.44 69.53,-13.73 137.3,-19.87 137.3,-107.35 0,92.3 -40.27,110.79 -90.54,110.79l0 0z"/>
   </clipPath>
  <linearGradient id="id13" gradientUnits="userSpaceOnUse" x1="5899.65" y1="11415.67" x2="9916.98" y2="11415.67">
   <stop offset="0" style="stop-opacity:1; stop-color:white"/>
   <stop offset="1" style="stop-opacity:1; stop-color:white"/>
  </linearGradient>
  <linearGradient id="id14" gradientUnits="userSpaceOnUse" xlink:href="#id13" x1="6121.95" y1="11275.94" x2="9455.7" y2="11275.94">
  </linearGradient>
  <linearGradient id="id15" gradientUnits="userSpaceOnUse" xlink:href="#id13" x1="6031.39" y1="11268.97" x2="9663.03" y2="11268.97">
  </linearGradient>
  <linearGradient id="id16" gradientUnits="userSpaceOnUse" xlink:href="#id13" x1="5902.36" y1="11247.97" x2="9835.73" y2="11247.97">
  </linearGradient>
  <linearGradient id="id17" gradientUnits="userSpaceOnUse" xlink:href="#id13" x1="5965.44" y1="11320.28" x2="9619.53" y2="11320.28">
  </linearGradient>
  <linearGradient id="id18" gradientUnits="userSpaceOnUse" xlink:href="#id13" x1="5877.65" y1="11307.73" x2="9655.56" y2="11307.73">
  </linearGradient>
  <linearGradient id="id19" gradientUnits="userSpaceOnUse" xlink:href="#id13" x1="5929.7" y1="11251.66" x2="9847.9" y2="11251.66">
  </linearGradient>
  <linearGradient id="id20" gradientUnits="userSpaceOnUse" xlink:href="#id13" x1="5923.47" y1="11323.21" x2="9548.62" y2="11323.21">
  </linearGradient>
  <linearGradient id="id21" gradientUnits="userSpaceOnUse" xlink:href="#id13" x1="6058.26" y1="11341.03" x2="9394.09" y2="11341.03">
  </linearGradient>
  <linearGradient id="id22" gradientUnits="userSpaceOnUse" xlink:href="#id13" x1="5912.95" y1="11317.19" x2="9872.15" y2="11317.19">
  </linearGradient>
  <linearGradient id="id23" gradientUnits="userSpaceOnUse" xlink:href="#id13" x1="6228.14" y1="11486.18" x2="8735.54" y2="11486.18">
  </linearGradient>
  <linearGradient id="id24" gradientUnits="userSpaceOnUse" xlink:href="#id13" x1="5964.87" y1="11230.18" x2="9857.94" y2="11230.18">
  </linearGradient>
  <linearGradient id="id25" gradientUnits="userSpaceOnUse" xlink:href="#id13" x1="7154.49" y1="10845.19" x2="9661.64" y2="10845.19">
  </linearGradient>
  <linearGradient id="id26" gradientUnits="userSpaceOnUse" xlink:href="#id13" x1="6077.01" y1="11219.92" x2="9795.64" y2="11219.92">
  </linearGradient>
  <linearGradient id="id27" gradientUnits="userSpaceOnUse" xlink:href="#id13" x1="5898.9" y1="11372.48" x2="9935.63" y2="11372.48">
  </linearGradient>
  <linearGradient id="id28" gradientUnits="userSpaceOnUse" xlink:href="#id13" x1="5926.79" y1="11257.91" x2="9564.42" y2="11257.91">
  </linearGradient>
  <linearGradient id="id29" gradientUnits="userSpaceOnUse" xlink:href="#id13" x1="6037.8" y1="11712.46" x2="8545.2" y2="11712.46">
  </linearGradient>
  <linearGradient id="id30" gradientUnits="userSpaceOnUse" xlink:href="#id13" x1="5931.46" y1="11277.57" x2="9652.21" y2="11277.57">
  </linearGradient>
  <linearGradient id="id31" gradientUnits="userSpaceOnUse" xlink:href="#id13" x1="5916.3" y1="11290.98" x2="9809.37" y2="11290.98">
  </linearGradient>
  <linearGradient id="id32" gradientUnits="userSpaceOnUse" xlink:href="#id13" x1="5907.39" y1="11232.72" x2="9808.84" y2="11232.72">
  </linearGradient>
  <linearGradient id="id33" gradientUnits="userSpaceOnUse" xlink:href="#id13" x1="5897.81" y1="11399.01" x2="9856.46" y2="11399.01">
  </linearGradient>
  <linearGradient id="id34" gradientUnits="userSpaceOnUse" xlink:href="#id13" x1="5956.47" y1="11245.23" x2="9770.79" y2="11245.23">
  </linearGradient>
  <linearGradient id="id35" gradientUnits="userSpaceOnUse" xlink:href="#id13" x1="7829.35" y1="11231.91" x2="9234.82" y2="11231.91">
  </linearGradient>
  <linearGradient id="id36" gradientUnits="userSpaceOnUse" xlink:href="#id13" x1="5904.61" y1="11242.81" x2="9856.77" y2="11242.81">
  </linearGradient>
  <linearGradient id="id37" gradientUnits="userSpaceOnUse" xlink:href="#id13" x1="5894.76" y1="11319.48" x2="9787.83" y2="11319.48">
  </linearGradient>
  <linearGradient id="id38" gradientUnits="userSpaceOnUse" xlink:href="#id13" x1="5968.3" y1="11762.28" x2="8475.61" y2="11762.28">
  </linearGradient>
  <linearGradient id="id39" gradientUnits="userSpaceOnUse" xlink:href="#id13" x1="5916.63" y1="11279.32" x2="9731.98" y2="11279.32">
  </linearGradient>
  <linearGradient id="id40" gradientUnits="userSpaceOnUse" xlink:href="#id13" x1="5898.9" y1="11411.32" x2="9935.63" y2="11411.32">
  </linearGradient>
  <linearGradient id="id41" gradientUnits="userSpaceOnUse" xlink:href="#id13" x1="7545.92" y1="10817.06" x2="9225.6" y2="10817.06">
  </linearGradient>
  <linearGradient id="id42" gradientUnits="userSpaceOnUse" xlink:href="#id13" x1="6485.8" y1="11197.96" x2="9811.43" y2="11197.96">
  </linearGradient>
  <linearGradient id="id43" gradientUnits="userSpaceOnUse" xlink:href="#id13" x1="5990.4" y1="11287.38" x2="9541.34" y2="11287.38">
  </linearGradient>
  <linearGradient id="id44" gradientUnits="userSpaceOnUse" xlink:href="#id13" x1="5898.84" y1="11395.97" x2="9901.24" y2="11395.97">
  </linearGradient>
  <linearGradient id="id45" gradientUnits="userSpaceOnUse" xlink:href="#id13" x1="5904.86" y1="11377.1" x2="9902.04" y2="11377.1">
  </linearGradient>
  <linearGradient id="id46" gradientUnits="userSpaceOnUse" xlink:href="#id13" x1="5898.43" y1="11395.97" x2="9903.49" y2="11395.97">
  </linearGradient>
  <linearGradient id="id47" gradientUnits="userSpaceOnUse" xlink:href="#id13" x1="8197.06" y1="10172.22" x2="9952.23" y2="10172.22">
  </linearGradient>
  <linearGradient id="id48" gradientUnits="userSpaceOnUse" xlink:href="#id13" x1="5969.42" y1="11328.31" x2="9598.43" y2="11328.31">
  </linearGradient>
  <linearGradient id="id49" gradientUnits="userSpaceOnUse" xlink:href="#id13" x1="5901.73" y1="11373.45" x2="9919.06" y2="11373.45">
  </linearGradient>
  <linearGradient id="id50" gradientUnits="userSpaceOnUse" xlink:href="#id13" x1="6094.05" y1="11348.16" x2="9467.58" y2="11348.16">
  </linearGradient>
  <linearGradient id="id51" gradientUnits="userSpaceOnUse" xlink:href="#id13" x1="6017.09" y1="11290.31" x2="9348.3" y2="11290.31">
  </linearGradient>
  <linearGradient id="id52" gradientUnits="userSpaceOnUse" xlink:href="#id13" x1="5875.47" y1="11683.22" x2="8383.01" y2="11683.22">
  </linearGradient>
  <linearGradient id="id53" gradientUnits="userSpaceOnUse" xlink:href="#id13" x1="5911.07" y1="11231.91" x2="9676.79" y2="11231.91">
  </linearGradient>
  <radialGradient id="id54" gradientUnits="userSpaceOnUse" gradientTransform="matrix(14.2829 18.7344 83.846 -63.9235 -1.0909E+06 646828)" cx="6818.8" cy="11930.56" r="16.19" fx="6818.8" fy="11930.56">
   <stop offset="0" style="stop-opacity:1; stop-color:#B69FD1"/>
   <stop offset="1" style="stop-opacity:1; stop-color:#439FC2"/>
  </radialGradient>
 </defs>
 <g id="Camada_x0020_1">
  <metadata id="CorelCorpID_0Corel-Layer"/>
  <path class="fil0" d="M10130.99 9224.18c0,14.61 -11.81,26.42 -26.42,26.42 -14.64,0 -26.46,-11.81 -26.46,-26.42 0,-14.6 11.82,-26.46 26.46,-26.46 14.61,0 26.42,11.86 26.42,26.46z"/>
  <path class="fil0" d="M8635.89 10870.21c0,14.6 -11.82,26.42 -26.43,26.42 -14.6,0 -26.45,-11.82 -26.45,-26.42 0,-14.61 11.85,-26.43 26.45,-26.43 14.61,0 26.43,11.82 26.43,26.43z"/>
  <path class="fil0" d="M6601.88 12657.1c0,14.57 -11.82,26.42 -26.43,26.42 -14.6,0 -26.46,-11.85 -26.46,-26.42 0,-14.61 11.86,-26.46 26.46,-26.46 14.61,0 26.43,11.85 26.43,26.46z"/>
  <path class="fil0" d="M6009.49 12092.3c0,8.96 -7.27,16.19 -16.19,16.19 -8.93,0 -16.19,-7.23 -16.19,-16.19 0,-8.93 7.26,-16.16 16.19,-16.16 8.92,0 16.19,7.23 16.19,16.16z"/>
  <path class="fil0" d="M8428.31 10072.58c0,8.92 -7.23,16.15 -16.19,16.15 -8.93,0 -16.19,-7.23 -16.19,-16.15 0,-8.96 7.26,-16.2 16.19,-16.2 8.96,0 16.19,7.24 16.19,16.2z"/>
  <path class="fil0" d="M7854.73 10034.34c0,8.92 -7.23,16.15 -16.16,16.15 -8.96,0 -16.19,-7.23 -16.19,-16.15 0,-8.96 7.23,-16.2 16.19,-16.2 8.93,0 16.16,7.24 16.16,16.2z"/>
  <path class="fil0" d="M7275.68 11847.72c0,8.92 -7.23,16.19 -16.16,16.19 -8.96,0 -16.22,-7.27 -16.22,-16.19 0,-8.93 7.26,-16.16 16.22,-16.16 8.93,0 16.16,7.23 16.16,16.16z"/>
  <path class="fil0" d="M6904.77 10558.81c0,8.93 7.23,16.19 16.16,16.19 8.96,0 16.19,-7.26 16.19,-16.19 0,-8.96 -7.23,-16.16 -16.19,-16.16 -8.93,0 -16.16,7.2 -16.16,16.16z"/>
  <path class="fil0" d="M8096.84 10032.78c0,8.93 7.27,16.16 16.2,16.16 8.96,0 16.19,-7.23 16.19,-16.16 0,-8.96 -7.23,-16.19 -16.19,-16.19 -8.93,0 -16.2,7.23 -16.2,16.19z"/>
  <path class="fil0" d="M5664.55 12884.29c0,8.92 7.23,16.19 16.19,16.19 8.92,0 16.16,-7.27 16.16,-16.19 0,-8.96 -7.24,-16.2 -16.16,-16.2 -8.96,0 -16.19,7.24 -16.19,16.2z"/>
  <path class="fil0" d="M8501.06 10812.03c0,8.93 7.23,16.16 16.15,16.16 8.96,0 16.2,-7.23 16.2,-16.16 0,-8.92 -7.24,-16.19 -16.2,-16.19 -8.92,0 -16.15,7.27 -16.15,16.19z"/>
  <path class="fil0" d="M7011.35 10843.71c0,8.93 7.26,16.16 16.19,16.16 8.92,0 16.19,-7.23 16.19,-16.16 0,-8.96 -7.27,-16.19 -16.19,-16.19 -8.93,0 -16.19,7.23 -16.19,16.19z"/>
  <path class="fil0" d="M9154.58 9491.06c0,8.92 7.23,16.16 16.19,16.16 8.92,0 16.16,-7.24 16.16,-16.16 0,-8.96 -7.24,-16.19 -16.16,-16.19 -8.96,0 -16.19,7.23 -16.19,16.19z"/>
  <path class="fil0" d="M5591.73 11552.41c0,8.96 7.23,16.19 16.19,16.19 8.93,0 16.2,-7.23 16.2,-16.19 0,-8.93 -7.27,-16.19 -16.2,-16.19 -8.96,0 -16.19,7.26 -16.19,16.19z"/>
  <path class="fil0" d="M6783.84 11026.38c0,8.93 7.23,16.19 16.19,16.19 8.93,0 16.16,-7.26 16.16,-16.19 0,-8.92 -7.23,-16.19 -16.16,-16.19 -8.96,0 -16.19,7.27 -16.19,16.19z"/>
  <path class="fil0" d="M9997.19 9327.23c0,16.86 -13.66,30.51 -30.52,30.51 -16.86,0 -30.51,-13.65 -30.51,-30.51 0,-16.86 13.65,-30.52 30.51,-30.52 16.86,0 30.52,13.66 30.52,30.52z"/>
  <path class="fil0" d="M8271.79 11226.83c0,16.83 -13.66,30.52 -30.52,30.52 -16.83,0 -30.52,-13.69 -30.52,-30.52 0,-16.86 13.69,-30.51 30.52,-30.51 16.86,0 30.52,13.65 30.52,30.51z"/>
  <path class="fil0" d="M6542.29 11168.27c0,-8.96 7.27,-16.19 16.19,-16.19 8.93,0 16.2,7.23 16.2,16.19 0,8.92 -7.27,16.16 -16.2,16.16 -8.92,0 -16.19,-7.24 -16.19,-16.16z"/>
  <g style="clip-path:url(#id0)">
   <image x="8051.37" y="8739.54" width="3507.32" height="2258.48" xlink:href="asteroide_Images\asteroide_ImgID1.png"/>
  </g>
  <g style="clip-path:url(#id1)">
   <image x="5560.76" y="12313.17" width="801.51" height="783.87" xlink:href="asteroide_Images\asteroide_ImgID2.png"/>
  </g>
  <g style="clip-path:url(#id2)">
   <image x="5377.31" y="10940.87" width="2847.62" height="2089.15" xlink:href="asteroide_Images\asteroide_ImgID3.png"/>
  </g>
  <path class="fil1" d="M7259.52 11863.91c-8.96,0 -16.22,-7.27 -16.22,-16.19 0,-8.93 7.26,-16.16 16.22,-16.16 8.93,0 16.16,7.23 16.16,16.16 0,8.92 -7.23,16.19 -16.16,16.19z"/>
  <g style="clip-path:url(#id3)">
   <image x="5765.37" y="10824.45" width="2339.62" height="1577.62" xlink:href="asteroide_Images\asteroide_ImgID4.png"/>
  </g>
  <g style="clip-path:url(#id4)">
   <image x="7508.09" y="11025.53" width="106.54" height="106.54" xlink:href="asteroide_Images\asteroide_ImgID5.png"/>
  </g>
  <g style="clip-path:url(#id5)">
   <image x="6153.43" y="10824.45" width="2071.51" height="1679.93" xlink:href="asteroide_Images\asteroide_ImgID6.png"/>
  </g>
  <g style="clip-path:url(#id6)">
   <image x="5546.65" y="12263.79" width="815.62" height="748.59" xlink:href="asteroide_Images\asteroide_ImgID7.png"/>
  </g>
  <g style="clip-path:url(#id7)">
   <image x="5631.31" y="12838.81" width="85.37" height="88.9" xlink:href="asteroide_Images\asteroide_ImgID8.png"/>
  </g>
  <g style="clip-path:url(#id8)">
   <image x="5934.7" y="12348.45" width="378.18" height="342.9" xlink:href="asteroide_Images\asteroide_ImgID9.png"/>
  </g>
  <path class="fil2" d="M6084.32 12680.06c0,68.41 -55.46,123.86 -123.9,123.86 -68.44,0 -123.9,-55.45 -123.9,-123.86 0,-68.44 55.46,-123.89 123.9,-123.89 68.44,0 123.9,55.45 123.9,123.89z"/>
  <g style="clip-path:url(#id9)">
   <image x="8086.65" y="9773.17" width="1746.96" height="1189.57" xlink:href="asteroide_Images\asteroide_ImgID10.png"/>
  </g>
  <g style="clip-path:url(#id10)">
   <image x="6153.43" y="10838.56" width="2071.51" height="1648.18" xlink:href="asteroide_Images\asteroide_ImgID11.png"/>
  </g>
  <g style="clip-path:url(#id11)">
   <image x="5934.7" y="12348.45" width="378.18" height="325.26" xlink:href="asteroide_Images\asteroide_ImgID12.png"/>
  </g>
  <g style="clip-path:url(#id12)">
   <image x="9779.98" y="9670.87" width="187.68" height="173.57" xlink:href="asteroide_Images\asteroide_ImgID13.png"/>
  </g>
  <path class="fil3" d="M5960.42 12763.81c0,0 -74.58,-14.32 -59.51,-149.36 0,0 23.28,-20.39 67.17,-58.07 54.08,3.32 98.81,41.27 112.14,92 -41.59,39.27 -81.59,77.79 -119.8,115.43z"/>
  <path class="fil4" d="M6358.71 12444.09c24.48,-38.63 39.93,-82.97 44.73,-128.45 0.81,-7.33 1.27,-14.92 -1.02,-21.94 -4.45,-13.55 -18.38,-21.91 -32.28,-25.19 -33.98,-8.04 -71.41,9.14 -90.53,38.35 -19.08,29.24 -20.46,68.23 -6.84,100.36 7.48,17.64 20.07,34.22 37.92,41.24 17.82,7.02 41.21,1.77 50.45,-15.02 -2.19,-5.75 -11.39,-6.88 -14.89,-1.84l12.46 12.49z"/>
  <path class="fil5" d="M5753.83 12997.18c24.52,-38.63 39.97,-82.98 44.77,-128.45 0.78,-7.34 1.27,-14.92 -1.02,-21.94 -4.45,-13.55 -18.42,-21.91 -32.28,-25.19 -33.97,-8.05 -71.44,9.13 -90.52,38.34 -19.09,29.25 -20.46,68.23 -6.88,100.37 7.48,17.67 20.07,34.18 37.92,41.24 17.85,7.02 41.2,1.73 50.48,-15.06 -2.18,-5.72 -11.39,-6.85 -14.88,-1.8l12.41 12.49z"/>
  <path class="fil6" d="M7732.6 11245.03c17.29,-27.27 28.22,-58.63 31.64,-90.73 0.53,-5.19 0.89,-10.55 -0.74,-15.52 -3.17,-9.56 -13.01,-15.49 -22.82,-17.82 -23.99,-5.64 -50.45,6.49 -63.93,27.13 -13.51,20.64 -14.46,48.19 -4.86,70.91 5.29,12.45 14.18,24.16 26.77,29.1 12.63,4.98 29.11,1.27 35.67,-10.62 -1.55,-4.05 -8.05,-4.83 -10.51,-1.27l8.78 8.82z"/>
  <path class="fil7" d="M6162 12496.87c12.45,-23.08 11.82,-52.71 -1.59,-75.25 -26.14,0.81 -53.52,11.5 -67.45,33.65 -13.94,22.12 -8.93,56.27 14.29,68.34 23.24,12.03 57.46,-11.08 50.16,-36.23l4.59 9.49z"/>
  <path class="fil8" d="M6525.78 12461.98c0.21,-8.86 -0.88,-17.75 -3.28,-26.29l-1.52 -2.82 -3.31 -0.42c-9,1.9 -14.32,15.27 -23.18,12.95l-4.8 -0.85 -1.16 7.16c6.28,13.02 26.1,16.62 36.62,6.74l-0.53 3.98 1.16 -0.45z"/>
  <path class="fil9" d="M6092.78 12817.72c0.21,-8.86 -0.88,-17.75 -3.28,-26.32l-1.52 -2.79 -3.31 -0.42c-9,1.9 -14.29,15.31 -23.18,12.95l-4.8 -0.85 -1.16 7.2c6.28,12.98 26.1,16.61 36.62,6.7l-0.5 3.99 1.13 -0.46z"/>
  <path class="fil10" d="M6648.05 12009.33c0.39,-16.72 -1.72,-33.48 -6.2,-49.6l-2.86 -5.3 -6.32 -0.81c-16.89,3.6 -26.91,28.86 -43.67,24.42l-9.03 -1.59c-4.94,1.66 -4.52,8.85 -2.22,13.54 11.88,24.49 49.28,31.33 69.07,12.63l-0.99 7.55 2.22 -0.84z"/>
  <path class="fil11" d="M5859.98 12699.92c0.39,-16.72 -1.69,-33.51 -6.2,-49.63l-2.86 -5.26 -6.28 -0.81c-16.93,3.6 -26.95,28.86 -43.68,24.41l-9.06 -1.58c-4.94,1.62 -4.48,8.85 -2.22,13.51 11.88,24.48 49.28,31.36 69.11,12.66l-0.99 7.55 2.18 -0.85z"/>
  <path class="fil12" d="M6852.31 11759.21c0,-3.39 -0.07,-7.09 -2.15,-9.81l-8.54 -4.66c-8.6,-2.78 -16.93,-6.31 -24.9,-10.54 5.57,13.93 11.18,27.86 16.75,41.83l0.89 3.43c-0.11,4.19 -5.37,5.96 -7.69,9.42 -3.46,5.04 0.21,11.81 4.44,16.22 30.13,31.15 21.1,-27.27 21.2,-45.89z"/>
  <path class="fil13" d="M7215.36 11459.49c0,-3.42 -0.07,-7.13 -2.16,-9.81l-8.53 -4.69c-8.61,-2.75 -16.94,-6.28 -24.91,-10.51 5.61,13.93 11.18,27.86 16.76,41.83l0.88 3.43c-0.11,4.16 -5.36,5.96 -7.69,9.42 -3.46,5.04 0.21,11.81 4.48,16.19 30.13,31.18 21.06,-27.24 21.17,-45.86z"/>
  <path class="fil14" d="M7099.29 11989.71c-4.2,11.64 -21.98,15.14 -30.27,5.93 -8.25,-9.17 -2.89,-26.53 9.11,-29.46 11.99,-2.93 24.76,10.02 21.62,21.98l-0.46 1.55z"/>
  <path class="fil15" d="M6622.87 12209.67c5.57,8.11 10.86,20 3.67,26.7 -6.95,6.43 -18,1.06 -25.69,-4.41 -3.31,-2.36 -7.02,-5.5 -6.66,-9.56 0.84,-9.87 20.53,-5.46 23.42,-14.92l1.87 5.4 3.39 -3.21z"/>
  <path class="fil16" d="M7245.27 11609.17c5.54,8.11 10.83,20 3.64,26.71 -6.95,6.42 -18,1.05 -25.69,-4.41 -3.31,-2.37 -6.98,-5.51 -6.66,-9.56 0.84,-9.85 20.53,-5.47 23.42,-14.93l1.91 5.4 3.38 -3.21z"/>
  <path class="fil17" d="M6214.91 12264.42c1.8,3.21 2.58,7.02 2.23,10.69 -9.18,-2.47 -14.15,-12.17 -17.5,-21.03 -1.87,-4.97 -3.28,-11.36 0.67,-14.88 2.75,-2.47 6.88,-2.3 10.34,-3.6 6.87,-2.68 12.59,-11.54 19.36,-8.64 3.81,1.65 5.19,6.7 4.13,10.72 -1.13,4.02 -4.02,7.27 -6.84,10.34 -6.14,6.73 -12.28,13.44 -18.42,20.14l6.03 -3.74z"/>
  <path class="fil18" d="M6936.59 11513.07c1.84,3.21 2.61,7.02 2.26,10.69 -9.17,-2.43 -14.15,-12.17 -17.5,-21.06 -1.87,-4.94 -3.28,-11.32 0.67,-14.85 2.75,-2.47 6.88,-2.29 10.34,-3.6 6.88,-2.64 12.59,-11.53 19.33,-8.61 3.85,1.66 5.22,6.67 4.13,10.69 -1.1,4.03 -3.99,7.27 -6.81,10.34 -6.14,6.74 -12.28,13.44 -18.45,20.18l6.03 -3.78z"/>
  <path class="fil19" d="M6087.49 12331.41c2.26,-7.3 -9.52,-12.17 -15.59,-7.51 -6.1,4.62 -7.16,13.23 -7.76,20.85 10.33,2.26 21.8,-2.44 27.58,-11.33l-4.23 -2.01z"/>
  <path class="fil20" d="M5583.12 12111.49c-1.44,3.28 -6.06,4.23 -9.27,2.61 -3.21,-1.62 -5.12,-5.08 -6.04,-8.57l-0.21 -6.28c1.24,-4.69 7.09,-7.51 11.64,-5.72 4.55,1.84 6.92,7.66 5.12,12.18 -1.8,4.55 -7.27,7.19 -12.03,5.96l10.79 -0.18z"/>
  <path class="fil21" d="M6576.69 11875.66c7.55,1.2 14.25,-8.64 10.33,-15.24 -3.98,-0.35 -8.18,-0.14 -11.6,1.97 -3.39,2.05 -5.65,6.39 -4.31,10.13 1.34,3.77 6.99,5.47 9.6,2.5l-4.02 0.64z"/>
  <path class="fil22" d="M6317.26 12169.06c6.49,-6.49 9.77,-16.08 8.57,-25.18 -7.38,1.58 -14.71,3.24 -22.05,4.86 -3.46,0.75 -7.09,1.63 -9.7,4.03 -5.12,4.69 -3.53,14.07 2.22,17.95 5.75,3.92 13.93,2.72 19.4,-1.58l1.56 -0.08z"/>
  <path class="fil23" d="M8161.82 11013.12c6.5,-6.49 9.78,-16.09 8.54,-25.19 -7.34,1.62 -14.67,3.24 -22.01,4.87 -3.46,0.77 -7.13,1.62 -9.74,4.02 -5.08,4.73 -3.49,14.08 2.26,17.99 5.75,3.85 13.93,2.68 19.4,-1.59l1.55 -0.1z"/>
  <path class="fil24" d="M6596.3 12157.67c8.36,-4.06 13.65,-13.69 12.67,-22.9 -6.49,-1.58 -13.55,-0.74 -19.44,2.4 -7.8,4.1 -13.55,13.69 -10.23,21.88 3.31,8.22 17.74,9.34 20.18,0.84l-3.18 -2.22z"/>
  <path class="fil25" d="M6544.23 12237.19c-1.87,5.96 -8.36,10.12 -14.53,9.31 -2.08,-6.56 -4.09,-13.16 -6.14,-19.76 7.34,-6.24 20.43,-2.92 23.95,6l-3.28 4.45z"/>
  <path class="fil26" d="M6503.38 12444.83l4.16 7.23c-6.35,0.81 -12.94,1.59 -19.01,-0.35 -6.1,-1.94 -11.61,-7.44 -11.29,-13.83 0.28,-6.38 8.47,-11.61 13.58,-7.72 5.26,3.7 9.39,9.03 11.71,15.06l0.85 -0.39z"/>
  <path class="fil27" d="M5835.08 12600.26l4.13 7.2c-6.35,0.81 -12.95,1.62 -19.05,-0.35 -6.11,-1.94 -11.54,-7.44 -11.29,-13.83 0.31,-6.39 8.5,-11.61 13.58,-7.73 5.29,3.71 9.42,9 11.75,15.03l0.88 -0.32z"/>
  <path class="fil28" d="M5887.68 12600.26l4.12 7.2c-6.34,0.81 -12.94,1.62 -19.01,-0.35 -6.1,-1.94 -11.57,-7.44 -11.29,-13.83 0.28,-6.39 8.47,-11.61 13.58,-7.73 5.26,3.71 9.42,9 11.72,15.03l0.88 -0.32z"/>
  <path class="fil29" d="M6032.56 12253.94c-2.36,4.73 -7.69,7.87 -12.98,7.55 -5.29,-0.32 -10.26,-4.02 -12.06,-8.99 -1.2,-3.46 -0.22,-8.33 3.38,-8.96l4.41 0.84c6.25,2.47 12.49,4.98 18.74,7.45l-1.8 3.03 0.31 -0.92z"/>
  <path class="fil30" d="M8858.6 10410.64c-16.58,-5.11 18.69,-5.11 4.12,-11.29l-4.12 11.29z"/>
  <path class="fil31" d="M9243.55 10185.57c-2.12,4.52 3.42,9.28 8.39,9.31 4.98,0.04 9.63,-2.57 14.57,-3.06 -1.16,2.04 34.12,2.04 17.15,12.8l-3.53 4.76c-7.23,6.67 -15.56,12.63 -25.19,14.5 -9.63,1.84 -20.78,-1.34 -25.96,-9.66 -3.64,-5.79 -3.85,-13.51 -0.57,-19.51 3.28,-6 9.95,-9.95 16.79,-10.02l-1.65 0.88z"/>
  <path class="fil32" d="M6977.97 11824.82c8.72,4.31 16.69,-6.84 20.11,-15.91 2.12,-5.68 4.2,-12.45 0.81,-17.49 -4.51,-6.81 -14.74,-5.33 -22.58,-3.04 -6.84,2.01 -13.65,3.99 -20.46,5.96l-7.72 4.98 0.91 8.04c5.47,13.02 13.69,24.8 24.06,34.36l4.87 -16.9z"/>
  <path class="fil33" d="M6726.76 11960.29c73.2,46.18 119.24,-44.13 67.77,-97.26 -53.94,-55.67 -131.45,57.11 -67.77,97.26z"/>
  <path class="fil34" d="M6224.37 12569.47c73.2,46.18 119.24,-44.14 67.73,-97.26 -53.94,-55.67 -131.41,57.08 -67.73,97.26z"/>
  <path class="fil35" d="M6040.89 12703.91c73.2,46.14 119.2,-44.17 67.73,-97.3 -53.94,-55.66 -131.44,57.12 -67.73,97.3z"/>
  <path class="fil36" d="M5795.88 12490.73c73.21,46.18 119.24,-44.14 67.74,-97.26 -53.94,-55.67 -131.41,57.08 -67.74,97.26z"/>
  <path class="fil37" d="M9188.62 10216.02c42.54,26.81 69.32,-25.65 39.37,-56.55 -31.33,-32.35 -76.38,33.19 -39.37,56.55z"/>
  <path class="fil38" d="M6183.38 12380.8c-9.42,8.43 -26.96,3.88 -31.08,-8.11 8.15,-5.4 16.89,-11.01 26.7,-11.01 9.77,-0.03 20.15,8.33 18.38,17.96 -4.44,3.56 -8.89,7.16 -13.33,10.76l-0.67 -9.6z"/>
  <path class="fil39" d="M8723.83 10532.32c12.35,-197.35 -22.93,14.32 -8.43,2.08l8.43 -2.08z"/>
  <path class="fil40" d="M9967.52 9681.38c3.38,-16.68 -208.28,18.59 -0.5,1.94l0.5 -1.94z"/>
  <path class="fil41" d="M6184.96 11638.59c1.59,-6.35 3.21,-12.87 2.16,-19.33 -1.06,-6.42 -5.47,-12.77 -11.86,-14l-9.38 1.62c-8.68,4.58 -12.1,16.9 -7.06,25.29 5.05,8.4 17.57,11.15 25.65,5.61l0.49 0.81z"/>
  <path class="fil42" d="M6680.86 11869.13c4.17,8.36 -4.65,19.76 -13.76,17.82 -3.52,-3.81 -6.2,-8.33 -7.83,-13.23 4.73,-3.21 10.69,-4.59 16.3,-3.74l5.29 -0.85z"/>
  <path class="fil43" d="M6171.66 12560.89c-1.44,-4.16 -2.92,-8.36 -4.37,-12.52 -3.39,0.28 -6.7,1.34 -9.63,3.04 -0.32,6.52 5.68,12.66 12.2,12.52l1.8 -3.04z"/>
 </g>
</svg>
